<?xml version="1.0" encoding="UTF-8" standalone="no"?>
<!DOCTYPE svg PUBLIC "-//W3C//DTD SVG 1.1//EN" "http://www.w3.org/Graphics/SVG/1.1/DTD/svg11.dtd">
<svg width="100%" height="100%" viewBox="0 0 120 120" version="1.1" xmlns="http://www.w3.org/2000/svg" xmlns:xlink="http://www.w3.org/1999/xlink" xml:space="preserve" xmlns:serif="http://www.serif.com/" style="fill-rule:evenodd;clip-rule:evenodd;stroke-linejoin:round;stroke-miterlimit:2;">
    <circle cx="60" cy="60" r="59.559" style="fill:rgb(41,45,62);"/>
    <g transform="matrix(1,-5.55112e-17,-5.55112e-17,1,-3.9386,-3.0026)">
        <circle cx="97.501" cy="70.501" r="5.501" style="fill:rgb(41,45,62);"/>
    </g>
    <g transform="matrix(1.82721,0,0,1.82721,-95.5094,-95.5094)">
        <circle cx="85.107" cy="85.107" r="25.107" style="fill:rgb(49,54,74);"/>
    </g>
    <g transform="matrix(1.75384,0,0,1.75384,-59.2609,-63.6455)">
        <g transform="matrix(1,0,0,1,-6,-7)">
            <circle cx="69" cy="86" r="8" style="fill:rgb(104,174,107);"/>
        </g>
        <g transform="matrix(1,0,0,1,7,-18)">
            <circle cx="69" cy="86" r="8" style="fill:rgb(180,66,72);"/>
        </g>
        <g transform="matrix(1,0,0,1,-9,-24)">
            <circle cx="69" cy="86" r="8" style="fill:rgb(59,128,225);"/>
        </g>
    </g>
    <g transform="matrix(0.510599,-0.859819,1.04164,0.618571,-44.6216,80.6506)">
        <path d="M59.5,39C45.978,39 35,51.322 35,66.5C35,81.678 45.978,94 59.5,94C69.641,91.708 77.875,80.175 77.875,66.5C77.875,52.825 69.641,41.292 59.5,39Z" style="fill:white;fill-opacity:0.08;"/>
    </g>
</svg>
